<svg width="12" height="12" viewBox="0 0 12 12" fill="none" xmlns="http://www.w3.org/2000/svg">
<path d="M6.78708 0.32623C6.3521 -0.108743 5.64715 -0.108743 5.21217 0.32623L3.03506 2.50409L5.99963 5.46941L8.96494 2.50409L6.78633 0.32623H6.78708ZM9.49441 3.03431L6.53059 5.99963L9.49591 8.96494L11.6738 6.78633C12.1087 6.35135 12.1087 5.64715 11.6738 5.21292L9.49591 3.03431H9.49441ZM8.96494 9.49441L5.99963 6.53059L3.03431 9.49591L5.21292 11.6738C5.6479 12.1087 6.3521 12.1087 6.78633 11.6738L8.96494 9.49591V9.49441ZM2.50484 8.96494L5.46866 5.99963L2.50409 3.03431L0.32623 5.21292C-0.108743 5.6479 -0.108743 6.3521 0.32623 6.78633L2.50409 8.96494H2.50484Z" fill="#2DD4BF"/>
</svg>
